<svg width="205" height="52" viewBox="0 0 205 52" fill="none" xmlns="http://www.w3.org/2000/svg">
<path d="M28.68 2.6V8.944H17.552V39H11.208V8.944H0.0800001V2.6H28.68ZM30.4976 39L30.4716 13H36.8156L36.8416 15.314C37.7256 14.378 38.7829 13.6413 40.0136 13.104C41.2442 12.5493 42.5702 12.272 43.9916 12.272C44.9449 12.272 45.8982 12.4107 46.8516 12.688L44.3556 19.084C43.6969 18.824 43.0382 18.694 42.3796 18.694C41.3569 18.694 40.4209 18.9453 39.5716 19.448C38.7396 19.9333 38.0722 20.6007 37.5696 21.45C37.0842 22.282 36.8416 23.2093 36.8416 24.232V39H30.4976ZM68.1537 13H74.4977V39H68.1537L67.8677 35.776C67.157 36.9373 66.2124 37.882 65.0337 38.61C63.8724 39.3207 62.4944 39.676 60.8997 39.676C58.9757 39.676 57.173 39.312 55.4917 38.584C53.8104 37.856 52.3284 36.8507 51.0457 35.568C49.7804 34.2853 48.7837 32.8033 48.0557 31.122C47.345 29.4407 46.9897 27.638 46.9897 25.714C46.9897 23.8593 47.3277 22.1173 48.0037 20.488C48.697 18.8587 49.659 17.4287 50.8897 16.198C52.1204 14.9673 53.5417 14.0053 55.1537 13.312C56.7657 12.6187 58.499 12.272 60.3537 12.272C62.0697 12.272 63.6037 12.6533 64.9557 13.416C66.325 14.1787 67.4864 15.1493 68.4397 16.328L68.1537 13ZM60.7437 33.566C62.0957 33.566 63.2917 33.228 64.3317 32.552C65.3717 31.876 66.1864 30.966 66.7757 29.822C67.365 28.6607 67.6597 27.3867 67.6597 26C67.6597 24.596 67.365 23.322 66.7757 22.178C66.1864 21.0167 65.363 20.098 64.3057 19.422C63.2657 18.746 62.0784 18.408 60.7437 18.408C59.409 18.408 58.187 18.7547 57.0777 19.448C55.9857 20.124 55.1104 21.034 54.4517 22.178C53.8104 23.322 53.4897 24.596 53.4897 26C53.4897 27.404 53.819 28.678 54.4777 29.822C55.1364 30.966 56.0117 31.876 57.1037 32.552C58.213 33.228 59.4264 33.566 60.7437 33.566ZM94.6046 39H86.4146L76.9506 12.974H83.7106L90.5226 31.694L97.3086 12.974H104.069L94.6046 39ZM126.501 13H132.845V39H126.501L126.215 35.776C125.505 36.9373 124.56 37.882 123.381 38.61C122.22 39.3207 120.842 39.676 119.247 39.676C117.323 39.676 115.521 39.312 113.839 38.584C112.158 37.856 110.676 36.8507 109.393 35.568C108.128 34.2853 107.131 32.8033 106.403 31.122C105.693 29.4407 105.337 27.638 105.337 25.714C105.337 23.8593 105.675 22.1173 106.351 20.488C107.045 18.8587 108.007 17.4287 109.237 16.198C110.468 14.9673 111.889 14.0053 113.501 13.312C115.113 12.6187 116.847 12.272 118.701 12.272C120.417 12.272 121.951 12.6533 123.303 13.416C124.673 14.1787 125.834 15.1493 126.787 16.328L126.501 13ZM119.091 33.566C120.443 33.566 121.639 33.228 122.679 32.552C123.719 31.876 124.534 30.966 125.123 29.822C125.713 28.6607 126.007 27.3867 126.007 26C126.007 24.596 125.713 23.322 125.123 22.178C124.534 21.0167 123.711 20.098 122.653 19.422C121.613 18.746 120.426 18.408 119.091 18.408C117.757 18.408 116.535 18.7547 115.425 19.448C114.333 20.124 113.458 21.034 112.799 22.178C112.158 23.322 111.837 24.596 111.837 26C111.837 27.404 112.167 28.678 112.825 29.822C113.484 30.966 114.359 31.876 115.451 32.552C116.561 33.228 117.774 33.566 119.091 33.566ZM138.179 39V-3.09944e-06H144.523V39H138.179ZM161.806 39.676C159.414 39.676 157.23 39.0607 155.254 37.83C153.295 36.5993 151.727 34.9527 150.548 32.89C149.387 30.81 148.806 28.5133 148.806 26C148.806 24.0933 149.144 22.3167 149.82 20.67C150.496 19.006 151.423 17.55 152.602 16.302C153.798 15.0367 155.185 14.0487 156.762 13.338C158.339 12.6273 160.021 12.272 161.806 12.272C164.198 12.272 166.373 12.8873 168.332 14.118C170.308 15.3487 171.877 17.004 173.038 19.084C174.217 21.164 174.806 23.4693 174.806 26C174.806 27.8893 174.468 29.6573 173.792 31.304C173.116 32.9507 172.18 34.4067 170.984 35.672C169.805 36.92 168.427 37.8993 166.85 38.61C165.29 39.3207 163.609 39.676 161.806 39.676ZM161.806 33.332C163.071 33.332 164.207 32.994 165.212 32.318C166.217 31.642 167.006 30.7493 167.578 29.64C168.167 28.5307 168.462 27.3173 168.462 26C168.462 24.648 168.159 23.4173 167.552 22.308C166.963 21.1813 166.157 20.2887 165.134 19.63C164.129 18.954 163.019 18.616 161.806 18.616C160.558 18.616 159.431 18.954 158.426 19.63C157.421 20.306 156.623 21.2073 156.034 22.334C155.445 23.4607 155.15 24.6827 155.15 26C155.15 27.3693 155.453 28.6087 156.06 29.718C156.667 30.8273 157.473 31.7113 158.478 32.37C159.501 33.0113 160.61 33.332 161.806 33.332ZM198.248 13H204.592V39.494C204.592 41.366 204.211 43.0647 203.448 44.59C202.685 46.1327 201.645 47.45 200.328 48.542C199.011 49.6513 197.503 50.5007 195.804 51.09C194.105 51.6967 192.32 52 190.448 52C188.628 52 186.877 51.6273 185.196 50.882C183.515 50.1367 182.024 49.114 180.724 47.814C179.441 46.5313 178.462 45.0667 177.786 43.42L183.584 40.794C183.931 41.7473 184.451 42.5793 185.144 43.29C185.855 44.018 186.669 44.5813 187.588 44.98C188.507 45.396 189.46 45.604 190.448 45.604C191.453 45.604 192.415 45.4653 193.334 45.188C194.27 44.9107 195.111 44.5033 195.856 43.966C196.601 43.446 197.182 42.8047 197.598 42.042C198.031 41.2967 198.248 40.4473 198.248 39.494V35.828C197.433 36.972 196.411 37.8993 195.18 38.61C193.949 39.3207 192.528 39.676 190.916 39.676C189.044 39.676 187.293 39.3207 185.664 38.61C184.035 37.8993 182.596 36.92 181.348 35.672C180.117 34.4067 179.147 32.9507 178.436 31.304C177.743 29.6573 177.396 27.8893 177.396 26C177.396 24.1107 177.743 22.3427 178.436 20.696C179.147 19.0493 180.117 17.602 181.348 16.354C182.596 15.0887 184.035 14.1007 185.664 13.39C187.293 12.6793 189.044 12.324 190.916 12.324C192.528 12.324 193.949 12.6793 195.18 13.39C196.411 14.0833 197.433 15.002 198.248 16.146V13ZM190.994 33.566C192.329 33.566 193.507 33.228 194.53 32.552C195.57 31.8587 196.385 30.94 196.974 29.796C197.563 28.6347 197.858 27.3693 197.858 26C197.858 24.6133 197.555 23.348 196.948 22.204C196.359 21.06 195.544 20.1413 194.504 19.448C193.481 18.7547 192.311 18.408 190.994 18.408C189.694 18.408 188.507 18.7547 187.432 19.448C186.357 20.124 185.499 21.034 184.858 22.178C184.217 23.322 183.896 24.596 183.896 26C183.896 27.404 184.217 28.678 184.858 29.822C185.499 30.966 186.357 31.876 187.432 32.552C188.507 33.228 189.694 33.566 190.994 33.566Z" fill="#FF0505"/>
</svg>
